<svg width="14" height="14" xmlns="http://www.w3.org/2000/svg"><path d="M3 12.936v-.872C3 11.48 3.395 11 3.876 11h6.247c.483 0 .877.48.877 1.064v.872c0 .585-.395 1.064-.877 1.064H3.876C3.394 14 3 13.521 3 12.936zM11 .969v4.062c0 .533-.395.969-.877.969H3.877C3.394 6 3 5.564 3 5.03V.97c0-.534.394-.97.877-.97h6.246c.483 0 .877.436.877.97zm3 3.243v7.576c0 .667-.523 1.212-1.162 1.212h-.87c-.34 0-.461-.157-.461-.495v-.725c0-.5-.392-.91-.872-.91h-7.27c-.48 0-.872.41-.872.91v.597c0 .399-.136.623-.515.623h-.816C.522 13 0 12.455 0 11.788V4.212C0 3.545.523 3 1.162 3h.543c.579 0 .792.38.792.931v1.682c0 .5.392.909.872.909h7.274c.48 0 .872-.41.872-.91V3.925c0-.66.365-.924.802-.924h.521C13.478 3 14 3.545 14 4.212z" fill="#6A7599"/></svg>